<svg width="86" height="86" viewBox="0 0 86 86" fill="none" xmlns="http://www.w3.org/2000/svg">
<g id="icons">
<path id="Vector" d="M28 43.0034C28 46.9817 29.5804 50.797 32.3934 53.61C35.2064 56.4231 39.0218 58.0034 43 58.0034C46.9782 58.0034 50.7936 56.4231 53.6066 53.61C56.4196 50.797 58 46.9817 58 43.0034C58 39.0252 56.4196 35.2099 53.6066 32.3968C50.7936 29.5838 46.9782 28.0034 43 28.0034C39.0218 28.0034 35.2064 29.5838 32.3934 32.3968C29.5804 35.2099 28 39.0252 28 43.0034Z" fill="#FBB03E" stroke="#FBB03E" stroke-width="6"/>
<path id="Union" d="M53.8625 4.24756L54.9863 1.46599L52.9815 0.65602L51.5791 2.30185L53.8625 4.24756ZM62.1042 7.57724L65.0984 7.76373L65.2328 5.60563L63.228 4.79567L62.1042 7.57724ZM47.4002 11.8317L47.0598 14.8123L48.6473 14.9936L49.6837 13.7774L47.4002 11.8317ZM38.2395 12.1257L35.9904 14.111L37.1085 15.3776L38.7712 15.0782L38.2395 12.1257ZM31.4593 4.44474L33.7084 2.45939L32.2774 0.83834L30.287 1.68325L31.4593 4.44474ZM23.2771 7.91806L22.1048 5.15657L20.1144 6.00147L20.2866 8.15689L23.2771 7.91806ZM24.1219 18.4965L25.9851 20.8477L27.2398 19.8535L27.1124 18.2577L24.1219 18.4965ZM18.2802 24.5626L18.0937 27.5568L19.7298 27.6587L20.6993 26.3368L18.2802 24.5626ZM7.57382 23.8958L7.76031 20.9016L5.60222 20.7672L4.79225 22.772L7.57382 23.8958ZM4.24414 32.1375L1.46257 31.0137L0.652602 33.0186L2.29843 34.4209L4.24414 32.1375ZM12.4086 39.0943L15.3812 39.4987L15.6022 37.8742L14.3543 36.8108L12.4086 39.0943ZM12.3967 47.5174L14.3821 49.7665L15.5822 48.7071L15.3703 47.1204L12.3967 47.5174ZM4.44092 54.5403L2.45557 52.2912L0.834522 53.7222L1.67943 55.7125L4.44092 54.5403ZM7.91424 62.7225L5.15275 63.8947L5.99765 65.8851L8.15307 65.713L7.91424 62.7225ZM18.1264 61.9069L20.5598 60.1524L19.5717 58.7819L17.8875 58.9165L18.1264 61.9069ZM24.513 68.4829L27.5072 68.6694L27.6065 67.0746L26.3385 66.1023L24.513 68.4829ZM23.8938 78.4248L20.8996 78.2383L20.7652 80.3964L22.77 81.2064L23.8938 78.4248ZM32.1355 81.7545L31.0117 84.5361L33.0166 85.346L34.4189 83.7002L32.1355 81.7545ZM38.271 74.5538L38.7999 71.6008L37.1046 71.2972L35.9876 72.6081L38.271 74.5538ZM48.4897 74.7051L50.7388 72.7198L49.6597 71.4973L48.047 71.738L48.4897 74.7051ZM54.5388 81.5577L52.2897 83.5431L53.7207 85.1641L55.711 84.3192L54.5388 81.5577ZM62.721 78.0844L63.8932 80.8459L65.8836 80.001L65.7115 77.8456L62.721 78.0844ZM62.0204 69.3123L60.302 66.8532L58.8931 67.8377L59.0299 69.5511L62.0204 69.3123ZM69.7749 61.5666L69.9614 58.5724L68.2837 58.4679L67.3186 59.8442L69.7749 61.5666ZM78.4238 62.1053L78.2373 65.0995L80.3954 65.2339L81.2054 63.229L78.4238 62.1053ZM81.7535 53.8636L84.5351 54.9873L85.3451 52.9825L83.6992 51.5801L81.7535 53.8636ZM75.1567 48.2425L72.1932 47.7757L71.9317 49.4359L73.211 50.526L75.1567 48.2425ZM74.9574 37.286L72.9721 35.037L71.6834 36.1746L72.0132 37.8616L74.9574 37.286ZM81.5549 31.4622L83.5402 33.7113L85.1613 32.2804L84.3164 30.29L81.5549 31.4622ZM78.0816 23.2801L80.843 22.1078L79.9981 20.1174L77.8427 20.2896L78.0816 23.2801ZM68.9684 24.0079L66.589 25.835L67.582 27.1281L69.2072 26.9983L68.9684 24.0079ZM61.516 17.0223L58.5218 16.8358L58.4147 18.5546L59.845 19.5138L61.516 17.0223ZM52.7388 7.02913L60.9805 10.3588L63.228 4.79567L54.9863 1.46599L52.7388 7.02913ZM49.6837 13.7774L56.146 6.19327L51.5791 2.30185L45.1167 9.88596L49.6837 13.7774ZM38.7712 15.0782C41.5445 14.5787 44.3345 14.501 47.0598 14.8123L47.7406 8.85105C44.4442 8.47454 41.0664 8.56833 37.7078 9.17315L38.7712 15.0782ZM29.2102 6.43009L35.9904 14.111L40.4886 10.1403L33.7084 2.45939L29.2102 6.43009ZM24.4493 10.6796L32.6315 7.20623L30.287 1.68325L22.1048 5.15657L24.4493 10.6796ZM27.1124 18.2577L26.2675 7.67923L20.2866 8.15689L21.1314 18.7353L27.1124 18.2577ZM20.6993 26.3368C22.1922 24.3011 23.9629 22.4503 25.9851 20.8477L22.2587 16.1452C19.8094 18.0862 17.6664 20.3268 15.861 22.7884L20.6993 26.3368ZM7.38733 26.89L18.0937 27.5568L18.4667 21.5684L7.76031 20.9016L7.38733 26.89ZM7.02571 33.2613L10.3554 25.0196L4.79225 22.772L1.46257 31.0137L7.02571 33.2613ZM14.3543 36.8108L6.18985 29.854L2.29843 34.4209L10.4629 41.3778L14.3543 36.8108ZM15.3703 47.1204C15.0288 44.5624 15.0409 42.0005 15.3812 39.4987L9.43597 38.6899C9.0244 41.7153 9.00942 44.8163 9.42309 47.9145L15.3703 47.1204ZM6.42627 56.7894L14.3821 49.7665L10.4114 45.2684L2.45557 52.2912L6.42627 56.7894ZM10.6757 61.5503L7.20241 53.3681L1.67943 55.7125L5.15275 63.8947L10.6757 61.5503ZM17.8875 58.9165L7.67541 59.732L8.15307 65.713L18.3652 64.8974L17.8875 58.9165ZM26.3385 66.1023C24.1615 64.4329 22.2082 62.4386 20.5598 60.1524L15.6929 63.6614C17.6891 66.4301 20.0542 68.8443 22.6875 70.8636L26.3385 66.1023ZM26.888 78.6113L27.5072 68.6694L21.5188 68.2965L20.8996 78.2383L26.888 78.6113ZM33.2592 78.9729L25.0175 75.6432L22.77 81.2064L31.0117 84.5361L33.2592 78.9729ZM35.9876 72.6081L29.852 79.8088L34.4189 83.7002L40.5545 76.4996L35.9876 72.6081ZM48.047 71.738C44.9374 72.202 41.8167 72.1411 38.7999 71.6008L37.7422 77.5069C41.3891 78.16 45.1662 78.2343 48.9325 77.6722L48.047 71.738ZM56.7879 79.5724L50.7388 72.7198L46.2407 76.6905L52.2897 83.5431L56.7879 79.5724ZM61.5487 75.3229L53.3665 78.7962L55.711 84.3192L63.8932 80.8459L61.5487 75.3229ZM59.0299 69.5511L59.7305 78.3232L65.7115 77.8456L65.0109 69.0734L59.0299 69.5511ZM67.3186 59.8442C65.4346 62.5312 63.0767 64.9142 60.302 66.8532L63.7388 71.7713C67.0992 69.4231 69.9532 66.5379 72.2313 63.2889L67.3186 59.8442ZM78.6103 59.1111L69.9614 58.5724L69.5885 64.5608L78.2373 65.0995L78.6103 59.1111ZM78.9719 52.7398L75.6423 60.9815L81.2054 63.229L84.5351 54.9873L78.9719 52.7398ZM73.211 50.526L79.8078 56.147L83.6992 51.5801L77.1024 45.959L73.211 50.526ZM72.0132 37.8616C72.6625 41.1832 72.7038 44.5346 72.1932 47.7757L78.1202 48.7093C78.7375 44.7903 78.6881 40.7331 77.9017 36.7105L72.0132 37.8616ZM79.5695 29.2132L72.9721 35.037L76.9428 39.5351L83.5402 33.7113L79.5695 29.2132ZM75.3201 24.4523L78.7934 32.6345L84.3164 30.29L80.843 22.1078L75.3201 24.4523ZM69.2072 26.9983L78.3204 26.2705L77.8427 20.2896L68.7295 21.0174L69.2072 26.9983ZM59.845 19.5138C62.3891 21.22 64.6751 23.3427 66.589 25.835L71.3477 22.1807C69.0297 19.162 66.2623 16.5933 63.1869 14.5307L59.845 19.5138ZM59.11 7.39075L58.5218 16.8358L64.5102 17.2088L65.0984 7.76373L59.11 7.39075Z" fill="#15191C"/>
</g>
</svg>
