<svg width="26" height="26" viewBox="0 0 26 26" fill="none" xmlns="http://www.w3.org/2000/svg">
<path d="M4.17871 16.362L5.21371 5.48999H9.96371L10.8357 14.639" fill="#FBB03E"/>
<path d="M1.75 24.24H24.25V12.6C24.25 12.3058 24.1332 12.0238 23.9252 11.8158C23.7172 11.6078 23.4351 11.491 23.141 11.491C23.0472 11.4909 22.9537 11.503 22.863 11.527L2.5 16.8C2.2854 16.8556 2.09538 16.981 1.9598 17.1564C1.82423 17.3318 1.75078 17.5473 1.751 17.769L1.75 24.24Z" stroke="white" stroke-width="2" stroke-linecap="round"/>
<path d="M9.00488 1.87901C10.037 1.86059 11.0602 2.07275 11.9999 2.50001C19.4289 5.67201 22.4999 1.76001 22.4999 1.76001" stroke="white" stroke-width="2"/>
<path d="M15.4761 20.4285H13.1904" stroke="white" stroke-width="2"/>
<path d="M7.857 20.4285H5.57129" stroke="white" stroke-width="2"/>
</svg>
