<svg width="26" height="27" viewBox="0 0 26 27" fill="none" xmlns="http://www.w3.org/2000/svg">
<path d="M10.0938 8.53906V15.7039L13.6761 14.4016V9.32111L10.0938 8.53906Z" fill="#FBB03E" stroke="#FBB03E" stroke-width="2"/>
<path d="M20.0479 18.8657V24.3453H16.6995V19.5967L20.0479 18.8657Z" fill="#FBB03E" stroke="#FBB03E" stroke-width="2"/>
<path d="M1.75 25.2397H24.25V13.5997C24.25 13.3056 24.1332 13.0235 23.9252 12.8155C23.7172 12.6076 23.4351 12.4907 23.141 12.4907C23.0472 12.4907 22.9537 12.5028 22.863 12.5267L2.5 17.7997C2.2854 17.8554 2.09538 17.9807 1.9598 18.1561C1.82423 18.3315 1.75078 18.547 1.751 18.7687L1.75 25.2397Z" stroke="white" stroke-width="2" stroke-linecap="round"/>
<path d="M20.0479 13.3545L20.047 5.10934C20.0471 4.97046 20.0011 4.83547 19.9162 4.72559C19.8312 4.61571 19.7122 4.53717 19.5778 4.50231L6.82146 1.19907C6.76462 1.18407 6.70609 1.17649 6.64731 1.17651C6.46305 1.17651 6.28635 1.24971 6.15606 1.37999C6.02577 1.51028 5.95258 1.68699 5.95258 1.87124V16.7897" stroke="white" stroke-width="2" stroke-linecap="round"/>
</svg>
