<svg width="20" height="25" viewBox="0 0 20 25" fill="none" xmlns="http://www.w3.org/2000/svg">
<g id="Group">
<path id="Vector 34" d="M1.0791 13.0667L0.389446 12.3426L1.0791 14.0667V13.0667ZM6.74577 13.0667H7.74577V12.0667H6.74577V13.0667ZM12.9791 1.7334V0.733398H12.5791L12.2894 1.00926L12.9791 1.7334ZM1.0791 14.0667H6.74577V12.0667H1.0791V14.0667ZM5.74577 13.0667V23.2667H7.74577V13.0667H5.74577ZM1.76876 13.7909L13.6688 2.45754L12.2894 1.00926L0.389446 12.3426L1.76876 13.7909ZM12.9791 2.7334H16.9458V0.733398H12.9791V2.7334Z" fill="white"/>
<path id="Vector 35" d="M1.0791 23.2667H6.74577L18.0791 11.9334V1.7334H12.9791" stroke="white" stroke-width="2"/>
<path id="Vector 36" d="M6.74609 13.0667L18.0794 1.7334" stroke="white" stroke-width="2"/>
</g>
</svg>
