<svg width="26" height="26" viewBox="0 0 26 26" fill="none" xmlns="http://www.w3.org/2000/svg">
<g id="icons 3">
<path id="Vector" d="M8.5 13.001C8.5 14.1945 8.97411 15.339 9.81802 16.183C10.6619 17.0269 11.8065 17.501 13 17.501C14.1935 17.501 15.3381 17.0269 16.182 16.183C17.0259 15.339 17.5 14.1945 17.5 13.001C17.5 11.8075 17.0259 10.6629 16.182 9.819C15.3381 8.97508 14.1935 8.50098 13 8.50098C11.8065 8.50098 10.6619 8.97508 9.81802 9.819C8.97411 10.6629 8.5 11.8075 8.5 13.001Z" fill="#FBB03E" stroke="#FBB03E" stroke-width="2"/>
<path id="Union" d="M16.2587 1.37427L16.6333 0.447077L15.965 0.177088L15.4976 0.725698L16.2587 1.37427ZM18.7312 2.37317L19.7293 2.43534L19.7741 1.71597L19.1058 1.44598L18.7312 2.37317ZM14.32 3.64952L14.2066 4.64306L14.7357 4.70349L15.0812 4.29809L14.32 3.64952ZM11.5724 3.73766L10.8227 4.39944L11.1954 4.82162L11.7496 4.72184L11.5724 3.73766ZM9.53832 1.43338L10.288 0.771601L9.81103 0.231252L9.14757 0.512887L9.53832 1.43338ZM7.08366 2.47538L6.69291 1.55488L6.02946 1.83652L6.08684 2.55499L7.08366 2.47538ZM7.33709 5.64869L7.95813 6.43247L8.3764 6.10104L8.33392 5.56908L7.33709 5.64869ZM5.58424 7.46876L5.52208 8.46683L6.06746 8.50079L6.39062 8.06016L5.58424 7.46876ZM2.37293 7.26875L2.43509 6.27068L1.71573 6.22588L1.44574 6.89416L2.37293 7.26875ZM1.37402 9.74126L0.446833 9.36667L0.176844 10.0349L0.725453 10.5024L1.37402 9.74126ZM3.82279 11.8278L4.81366 11.9627L4.88736 11.4211L4.47136 11.0667L3.82279 11.8278ZM3.8192 14.3556L4.48099 15.1053L4.88105 14.7522L4.8104 14.2232L3.8192 14.3556ZM1.43301 16.462L0.771222 15.7123L0.230873 16.1893L0.512508 16.8528L1.43301 16.462ZM2.475 18.9167L1.5545 19.3074L1.83614 19.9709L2.55461 19.9135L2.475 18.9167ZM5.53801 18.672L6.34917 18.0872L6.0198 17.6304L5.4584 17.6752L5.53801 18.672ZM7.45413 20.645L8.45219 20.7071L8.4853 20.1755L8.06263 19.8514L7.45413 20.645ZM7.26837 23.6274L6.2703 23.5652L6.2255 24.2846L6.89378 24.5546L7.26837 23.6274ZM9.74088 24.6263L9.36629 25.5535L10.0346 25.8235L10.502 25.2749L9.74088 24.6263ZM11.5815 22.4662L11.7578 21.4819L11.1927 21.3807L10.8203 21.8176L11.5815 22.4662ZM14.647 22.5116L15.3967 21.8498L15.0369 21.4423L14.4994 21.5225L14.647 22.5116ZM16.4616 24.5673L15.7119 25.2291L16.1889 25.7695L16.8524 25.4878L16.4616 24.5673ZM18.9163 23.5253L19.307 24.4458L19.9705 24.1642L19.9131 23.4457L18.9163 23.5253ZM18.7061 20.8938L18.1333 20.0741L17.6637 20.4023L17.7093 20.9734L18.7061 20.8938ZM21.0326 18.57L21.0948 17.572L20.5355 17.5371L20.2138 17.9959L21.0326 18.57ZM23.6272 18.7316L23.565 19.7297L24.2844 19.7745L24.5543 19.1062L23.6272 18.7316ZM24.6261 16.2591L25.5532 16.6337L25.8232 15.9654L25.2746 15.498L24.6261 16.2591ZM22.6471 14.5729L21.6593 14.4173L21.5721 14.9707L21.9986 15.3341L22.6471 14.5729ZM22.5874 11.2861L21.9256 10.5364L21.4961 10.9156L21.606 11.4779L22.5874 11.2861ZM24.5669 9.5387L25.2287 10.2884L25.7691 9.81141L25.4874 9.14795L24.5669 9.5387ZM23.5249 7.08404L24.4454 6.69329L24.1638 6.02984L23.4453 6.08722L23.5249 7.08404ZM20.7907 7.30241L19.9975 7.91146L20.3285 8.3425L20.8703 8.29924L20.7907 7.30241ZM18.5548 5.2066L17.5567 5.14444L17.521 5.71739L17.9978 6.03713L18.5548 5.2066ZM15.8841 2.30146L18.3567 3.30036L19.1058 1.44598L16.6333 0.447077L15.8841 2.30146ZM15.0812 4.29809L17.0199 2.02284L15.4976 0.725698L13.5589 3.00095L15.0812 4.29809ZM11.7496 4.72184C12.5717 4.57383 13.3987 4.5508 14.2066 4.64306L14.4335 2.65597C13.4352 2.54198 12.4123 2.57037 11.3952 2.75348L11.7496 4.72184ZM8.78863 2.09517L10.8227 4.39944L12.3221 3.07588L10.288 0.771601L8.78863 2.09517ZM7.47441 3.39588L9.92907 2.35388L9.14757 0.512887L6.69291 1.55488L7.47441 3.39588ZM8.33392 5.56908L8.08049 2.39577L6.08684 2.55499L6.34027 5.72829L8.33392 5.56908ZM6.39062 8.06016C6.83337 7.45647 7.35845 6.90763 7.95813 6.43247L6.71606 4.8649C5.97401 5.45288 5.32477 6.13165 4.77786 6.87736L6.39062 8.06016ZM2.31077 8.26682L5.52208 8.46683L5.6464 6.4707L2.43509 6.27068L2.31077 8.26682ZM2.30121 10.1158L3.30012 7.64334L1.44574 6.89416L0.446833 9.36667L2.30121 10.1158ZM4.47136 11.0667L2.02259 8.9801L0.725453 10.5024L3.17422 12.589L4.47136 11.0667ZM4.8104 14.2232C4.70908 13.4646 4.71267 12.7047 4.81366 11.9627L2.83193 11.693C2.70718 12.6096 2.70262 13.5492 2.82801 14.488L4.8104 14.2232ZM2.09479 17.2117L4.48099 15.1053L3.15742 13.6059L0.771222 15.7123L2.09479 17.2117ZM3.3955 18.5259L2.3535 16.0713L0.512508 16.8528L1.5545 19.3074L3.3955 18.5259ZM5.4584 17.6752L2.39539 17.9198L2.55461 19.9135L5.61762 19.6689L5.4584 17.6752ZM8.06263 19.8514C7.41707 19.3564 6.83789 18.7651 6.34917 18.0872L4.72685 19.2569C5.33153 20.0956 6.04796 20.8269 6.84563 21.4385L8.06263 19.8514ZM8.26644 23.6896L8.45219 20.7071L6.45606 20.5828L6.2703 23.5652L8.26644 23.6896ZM10.1155 23.6991L7.64296 22.7002L6.89378 24.5546L9.36629 25.5535L10.1155 23.6991ZM10.8203 21.8176L8.97972 23.9777L10.502 25.2749L12.3426 23.1148L10.8203 21.8176ZM14.4994 21.5225C13.5775 21.6601 12.6523 21.642 11.7578 21.4819L11.4052 23.4505C12.5097 23.6483 13.6537 23.6709 14.7945 23.5006L14.4994 21.5225ZM17.2113 23.9055L15.3967 21.8498L13.8973 23.1734L15.7119 25.2291L17.2113 23.9055ZM18.5255 22.6048L16.0709 23.6468L16.8524 25.4878L19.307 24.4458L18.5255 22.6048ZM17.7093 20.9734L17.9195 23.6049L19.9131 23.4457L19.703 20.8142L17.7093 20.9734ZM20.2138 17.9959C19.6552 18.7927 18.956 19.4992 18.1333 20.0741L19.2789 21.7135C20.2968 21.0022 21.1614 20.1282 21.8514 19.1441L20.2138 17.9959ZM23.6893 17.7336L21.0948 17.572L20.9705 19.5681L23.565 19.7297L23.6893 17.7336ZM23.6989 15.8845L22.7 18.357L24.5543 19.1062L25.5532 16.6337L23.6989 15.8845ZM21.9986 15.3341L23.9775 17.0203L25.2746 15.498L23.2957 13.8117L21.9986 15.3341ZM21.606 11.4779C21.7985 12.4627 21.8107 13.4563 21.6593 14.4173L23.635 14.7285C23.8219 13.5416 23.807 12.3127 23.5689 11.0943L21.606 11.4779ZM23.9052 8.78901L21.9256 10.5364L23.2492 12.0358L25.2287 10.2884L23.9052 8.78901ZM22.6044 7.47479L23.6464 9.92945L25.4874 9.14795L24.4454 6.69329L22.6044 7.47479ZM20.8703 8.29924L23.6046 8.08087L23.4453 6.08722L20.7111 6.30558L20.8703 8.29924ZM17.9978 6.03713C18.7522 6.54308 19.4301 7.1725 19.9975 7.91146L21.5838 6.69336C20.8816 5.77891 20.0433 5.0008 19.1117 4.37607L17.9978 6.03713ZM17.7332 2.31101L17.5567 5.14444L19.5528 5.26877L19.7293 2.43534L17.7332 2.31101Z" fill="white"/>
</g>
</svg>
