<svg width="120" height="50" viewBox="0 0 120 50" fill="none" xmlns="http://www.w3.org/2000/svg">
<path fill-rule="evenodd" clip-rule="evenodd" d="M51.4285 0.883908C51.4285 0.317486 50.7388 0.0365099 50.3406 0.440689L43.039 7.85075C42.9224 7.96904 42.8571 8.12819 42.8571 8.29397V33.8126C42.8571 34.162 43.1414 34.4453 43.492 34.4453H50.7936C51.1443 34.4453 51.4285 34.162 51.4285 33.8126V0.883908ZM26.7688 42.6313V43.559H28.064V44.2576C27.8933 44.3878 27.6883 44.4992 27.4488 44.5918C27.212 44.682 26.9751 44.7271 26.7382 44.7271C26.2593 44.7271 25.8722 44.5643 25.5767 44.2388C25.2813 43.9108 25.1335 43.42 25.1335 42.7665C25.1335 42.1606 25.2787 41.7037 25.5691 41.3957C25.862 41.0877 26.2555 40.9337 26.7497 40.9337C27.0757 40.9337 27.3469 41.0126 27.5635 41.1703C27.7825 41.3256 27.9315 41.5384 28.0105 41.8088L29.1337 41.6023C29.0217 41.0965 28.7695 40.7009 28.3772 40.4154C27.9875 40.1275 27.445 39.9835 26.7497 39.9835C26.2148 39.9835 25.7678 40.0749 25.4086 40.2577C24.9374 40.4956 24.5795 40.8373 24.335 41.283C24.0905 41.7287 23.9682 42.2382 23.9682 42.8116C23.9682 43.3399 24.0778 43.8294 24.2968 44.2801C24.5159 44.7283 24.8432 45.0738 25.2787 45.3167C25.7143 45.5571 26.225 45.6773 26.8108 45.6773C27.2718 45.6773 27.7265 45.5921 28.1748 45.4219C28.6256 45.2491 28.9694 45.05 29.2063 44.8247V42.6313H26.7688ZM117.562 43.6583V42.7049H120V44.9592C119.763 45.1908 119.419 45.3954 118.968 45.5729C118.52 45.7479 118.065 45.8354 117.604 45.8354C117.019 45.8354 116.508 45.7119 116.072 45.4649C115.637 45.2152 115.31 44.8601 115.09 44.3995C114.871 43.9363 114.762 43.4332 114.762 42.8902C114.762 42.3009 114.884 41.7772 115.129 41.3191C115.373 40.861 115.731 40.5098 116.202 40.2653C116.561 40.0774 117.008 39.9835 117.543 39.9835C118.239 39.9835 118.781 40.1315 119.171 40.4274C119.563 40.7208 119.815 41.1274 119.927 41.6472L118.804 41.8595C118.725 41.5816 118.576 41.3629 118.357 41.2033C118.141 41.0412 117.869 40.9601 117.543 40.9601C117.049 40.9601 116.656 41.1184 116.363 41.4349C116.072 41.7514 115.927 42.2211 115.927 42.8438C115.927 43.5155 116.075 44.0199 116.37 44.357C116.666 44.6915 117.053 44.8588 117.532 44.8588C117.769 44.8588 118.006 44.8125 118.243 44.7199C118.482 44.6246 118.687 44.5101 118.858 44.3763V43.6583H117.562ZM103.016 45.6773V40.1417H104.116L106.409 43.8384V40.1417H107.46V45.6773H106.325L104.067 42.0675V45.6773H103.016ZM94.2858 40.1417V45.6773H95.3969V40.1417H94.2858ZM82.2222 45.6773V40.1417H84.5481C85.133 40.1417 85.5574 40.1921 85.8212 40.2928C86.0876 40.3909 86.3004 40.5672 86.4596 40.8214C86.6189 41.0756 86.6986 41.3664 86.6986 41.6936C86.6986 42.109 86.5779 42.4526 86.3364 42.7245C86.095 42.9938 85.7341 43.1638 85.2538 43.2342C85.4927 43.3752 85.6893 43.53 85.8436 43.6987C86.0004 43.8674 86.2108 44.1669 86.4746 44.5974L87.1429 45.6773H85.8212L85.0223 44.4728C84.7385 44.0423 84.5444 43.7717 84.4399 43.6609C84.3353 43.5477 84.2246 43.4709 84.1076 43.4306C83.9906 43.3878 83.8052 43.3664 83.5513 43.3664H83.3273V45.6773H82.2222ZM83.3273 42.4828H84.1449C84.6751 42.4828 85.0061 42.4602 85.138 42.4149C85.2699 42.3695 85.3732 42.2915 85.4479 42.1808C85.5226 42.07 85.5599 41.9315 85.5599 41.7654C85.5599 41.5791 85.5101 41.4293 85.4106 41.3161C85.3135 41.2003 85.1754 41.1273 84.9962 41.097C84.9065 41.0845 84.6377 41.0782 84.1897 41.0782H83.3273V42.4828ZM70.3174 40.1417V45.6773H74.4444V44.7446H71.413V43.238H74.1372V42.3054H71.413V41.0782H74.3408V40.1417H70.3174ZM58.254 45.6773V40.1417H62.4321V41.0782H59.3917V42.3054H62.2207V43.238H59.3917V44.7446H62.5397V45.6773H58.254ZM45.873 40.1417V45.6773H46.924V42.0675L49.1825 45.6773H50.3175V40.1417H49.2666V43.8384L46.9736 40.1417H45.873ZM37.3016 45.6773V40.1417H38.254V45.6773H37.3016ZM11.9048 45.6773V40.1417H13.0054L15.2983 43.8384V40.1417H16.3492V45.6773H15.2142L12.9557 42.0675V45.6773H11.9048ZM0 40.1417V45.6773H4.28571V44.7446H1.13773V43.238H3.96669V42.3054H1.13773V41.0782H4.17809V40.1417H0ZM95.3696 7.74615C94.9697 8.14469 95.2529 8.82613 95.8186 8.82613H110.794C111.144 8.82613 111.429 9.10937 111.429 9.45877V25.2747C111.429 25.6241 111.144 25.9073 110.794 25.9073H94.9207C94.57 25.9073 94.2858 25.6241 94.2858 25.2747V10.5116C94.2858 9.94799 93.6019 9.66573 93.2019 10.0643L85.9003 17.3396C85.7812 17.4582 85.7143 17.6192 85.7143 17.7869V33.8153C85.7143 34.1647 85.9986 34.448 86.3492 34.448H111.166C111.334 34.448 111.496 34.3813 111.615 34.2627L119.814 26.0926C119.933 25.974 120 25.8131 120 25.6453V0.91816C120 0.568764 119.716 0.285522 119.365 0.285522H103.12C102.952 0.285522 102.79 0.352175 102.671 0.470818L95.3696 7.74615ZM60 9.08818C60 8.92039 60.0669 8.75948 60.186 8.64083L68.3855 0.470818C68.5045 0.352175 68.666 0.285522 68.8344 0.285522H87.8322C88.3979 0.285522 88.6812 0.966964 88.2812 1.3655L80.9796 8.64083C80.8605 8.75948 80.6991 8.82613 80.5307 8.82613H69.2064C68.8557 8.82613 68.5714 9.10937 68.5714 9.45877V17.3667C68.5714 17.6288 68.7846 17.8412 69.0476 17.8412H76.5079C76.8586 17.8412 77.1429 18.1245 77.1429 18.4739V25.7492C77.1429 26.0986 76.8586 26.3818 76.5079 26.3818H69.1519C68.9835 26.3818 68.822 26.4485 68.7029 26.5671L61.0839 34.1588C60.6839 34.5573 60 34.275 60 33.7114V9.08818ZM8.38546 0.470818C8.50454 0.352175 8.66603 0.285522 8.83442 0.285522H33.6508C34.0015 0.285522 34.2857 0.568764 34.2857 0.91816V16.3139C34.2857 16.4817 34.2188 16.6426 34.0998 16.7612L26.7982 24.0366C26.3982 24.4351 25.7143 24.1528 25.7143 23.5892V9.45877C25.7143 9.10937 25.43 8.82613 25.0794 8.82613H9.20635C8.85569 8.82613 8.57143 9.10937 8.57143 9.45877V25.2747C8.57143 25.6241 8.85569 25.9073 9.20635 25.9073H25.4513C25.6197 25.9073 25.7812 25.974 25.9002 26.0926L33.2018 33.368C33.6018 33.7665 33.3185 34.448 32.7529 34.448H17.0884C16.92 34.448 16.7585 34.3813 16.6394 34.2627L9.03671 26.6873C8.78247 26.4339 8.36805 26.4413 8.12305 26.7035L1.09962 34.2201C0.706678 34.6406 0 34.3636 0 33.789V9.08818C0 8.92039 0.0668932 8.75948 0.185964 8.64083L8.38546 0.470818Z" fill="#FBB03E"/>
</svg>
