<svg width="325" height="200" viewBox="0 0 325 200" fill="none" xmlns="http://www.w3.org/2000/svg">
<g clip-path="url(#clip0_2704_42478)">
<path fill-rule="evenodd" clip-rule="evenodd" d="M201.351 0V28.3784L129.73 97.2972H101.351V97.2974L33.7838 164.865H0L101.351 63.5137V97.2971L201.351 0ZM101.351 33.784V0.000205822L0 101.351H33.7838L101.351 33.784ZM101.351 541.893V508.109L0 609.461H33.7838L101.351 541.893ZM101.351 541.893L129.73 541.893L201.351 472.974V472.972H225.675L299.999 405.405V381.08L201.351 472.972V444.596L101.351 541.893ZM101.351 254.053V287.837L33.7838 355.404H0L101.351 254.053ZM101.351 795.946V762.162L0 863.513H33.7838L101.351 795.946ZM201.351 727.025L201.351 698.648L101.351 795.946L129.73 795.946L201.351 727.027L201.351 727.025ZM201.351 727.025L299.999 635.133V659.457L225.675 727.025H201.351ZM101.351 127.027L101.351 160.811L101.351 160.811L33.7838 228.379H0L101.351 127.027ZM101.351 160.811H129.73L201.351 91.892V91.8918H225.675L299.999 24.3243V0L201.351 91.8915V63.5137L101.351 160.811ZM101.351 668.917V635.133L0 736.484H33.7838L101.351 668.917ZM101.351 668.917L201.351 571.619V599.998L129.73 668.917L101.351 668.917ZM101.351 381.08V414.864L33.7838 482.431H0L101.351 381.08ZM101.351 414.864L129.73 414.864L201.351 345.945L225.675 345.945L299.999 278.377V254.053L201.351 345.944V317.567L101.351 414.864ZM101.351 922.973V889.189L0 990.541H33.7838L101.351 922.973ZM201.351 854.054L129.73 922.973L101.351 922.973L201.351 825.676V854.054ZM201.351 854.054L225.675 854.054L299.999 786.486V762.162L201.351 854.054ZM101.351 605.403V571.619L0 672.971H33.7838L101.351 605.403ZM101.351 317.567V351.35L33.7838 418.918H0L101.351 317.567ZM101.351 351.35L201.351 254.053V282.431L129.73 351.35L101.351 351.35ZM101.351 859.46V825.676L0 927.027H33.7838L101.351 859.46ZM201.351 790.541L129.73 859.459L101.351 859.46L201.351 762.162V790.541ZM201.351 790.541L225.675 790.54L299.999 722.973V698.648L201.351 790.541ZM101.351 190.543L101.351 224.325L101.351 224.327L33.7838 291.894H0L101.351 190.543ZM101.351 224.325H129.73L201.351 155.406V155.405H225.675L299.999 87.838V63.5137L201.351 155.405V127.027L101.351 224.325ZM101.351 732.43L101.351 698.648L0 800H33.7838L101.351 732.432L101.351 732.43ZM201.351 663.511L129.73 732.43H101.351L201.351 635.133V663.511ZM201.351 663.511L225.675 663.511L299.999 595.944V571.619L201.351 663.511ZM101.351 444.596L101.351 478.377L101.351 478.379L33.7838 545.947H0L101.351 444.596ZM101.351 478.377H129.73L201.351 409.459L225.675 409.458L299.999 341.891V317.567L201.351 409.458V381.08L101.351 478.377ZM101.351 986.483V952.7L0 1054.05H33.7838L101.351 986.483ZM201.351 536.488V508.109L101.351 605.406H129.73L201.351 536.488ZM201.351 536.488L299.999 444.596V468.92L225.675 536.487L201.351 536.488ZM201.351 917.568V889.189L101.351 986.487H129.73L201.351 917.568ZM201.351 917.568L225.675 917.568L299.999 850V825.676L201.351 917.568ZM201.351 190.543V218.919L299.999 127.027V151.352L225.675 218.919H201.351V218.921L129.73 287.84H101.351L201.351 190.543ZM201.351 981.078V952.7L101.351 1050H129.73L201.351 981.078ZM299.999 532.434V508.109L201.351 600.001H225.675L299.999 532.434ZM299.999 913.514V889.189L201.351 981.081H225.675L299.999 913.514ZM299.999 190.543V214.867L225.675 282.435H201.351L299.999 190.543ZM299.999 977.024V952.7L201.351 1044.59H225.675L299.999 977.024ZM400 0V18.9189L321.621 87.8378H300L400 0ZM400 527.028V508.109L300 595.947H321.621L400 527.028ZM400 254.053V272.972L321.621 341.891H300L400 254.053ZM400 781.081V762.162L300 850H321.621L400 781.081ZM400 127.027V145.946L321.621 214.865H300L400 127.027ZM400 654.052V635.133L300 722.971H321.621L400 654.052ZM400 381.08V399.999L321.621 468.918H300L400 381.08ZM400 908.108V889.189L300 977.027H321.621L400 908.108ZM400 63.5137V82.4326L321.621 151.351H300L400 63.5137ZM400 590.538V571.619L300 659.457H321.621L400 590.538ZM400 317.567V336.485L321.621 405.404H300L400 317.567ZM400 844.595V825.676L300 913.514H321.621L400 844.595ZM400 190.543V209.462L321.621 278.381H300L400 190.543ZM400 717.567V698.648L300 786.486H321.621L400 717.567ZM400 444.596V463.515L321.621 532.433H300L400 444.596ZM400 971.618V952.7L300 1040.54H321.621L400 971.618ZM500 0V13.5135L414.865 82.4324H400L500 0ZM500 521.623V508.109L400 590.542H414.865L500 521.623ZM500 521.623L600 444.596V451.352L509.459 521.623L500 521.623ZM500 254.053V267.566L414.865 336.485H400L500 254.053ZM500 775.676V762.162L400 844.595H414.865L500 775.676ZM500 775.676L509.459 775.675L600 705.405V698.648L500 775.676ZM500 127.027V140.54L600 63.5137V70.2704L509.459 140.541L500 140.541L414.865 209.46H400L500 127.027ZM500 648.647V635.133L400 717.565H414.865L500 648.647ZM500 648.647L509.459 648.646L600 578.376V571.619L500 648.647ZM500 381.08V394.593L600 317.567V324.323L509.459 394.594L500 394.594L414.865 463.513H400L500 381.08ZM500 902.703V889.189L400 971.622H414.865L500 902.703ZM500 902.703L509.459 902.703L600 832.433V825.676L500 902.703ZM500 63.5137V77.0267L600 0V6.75675L509.459 77.027L500 77.0272L414.865 145.946H400L500 63.5137ZM500 585.133V571.619L400 654.052H414.865L500 585.133ZM500 317.567V331.08L600 254.053V260.81L509.459 331.08L500 331.08L414.865 399.999H400L500 317.567ZM500 839.189V825.676L400 908.108H414.865L500 839.189ZM500 839.189L600 762.162V768.919L509.459 839.189L500 839.189ZM500 190.543V204.054L600 127.027V133.784L509.459 204.054H500V204.056L414.865 272.975H400L500 190.543ZM500 712.16L500 698.648L400 781.081H414.865L500 712.162L500 712.16ZM500 712.16L600 635.133V641.89L509.459 712.16H500ZM500 444.596V458.107L600 381.08V387.837L509.459 458.107H500V458.109L414.865 527.028H400L500 444.596ZM500 966.213V952.7L400 1035.13H414.865L500 966.213ZM600 514.866V508.109L500 585.136H509.459L600 514.866ZM600 895.946V889.189L500 966.216H509.459L600 895.946ZM600 190.543V197.3L509.459 267.57H500L600 190.543ZM600 959.456V952.7L500 1029.73H509.459L600 959.456ZM700 0V4.05405L605.406 70.2702H600L700 0ZM700 512.163V508.109L600 578.38H605.406L700 512.163ZM700 254.053V258.107L605.406 324.323H600L700 254.053ZM700 766.216V762.162L600 832.432H605.406L700 766.216ZM700 127.027V131.081L605.406 197.298H600L700 127.027ZM700 639.187V635.133L600 705.403H605.406L700 639.187ZM700 381.08V385.134L605.406 451.35H600L700 381.08ZM700 893.244V889.189L600 959.46H605.406L700 893.244ZM700 63.5137V67.5677L605.406 133.784H600L700 63.5137ZM700 575.673V571.619L600 641.89H605.406L700 575.673ZM700 317.567V321.621L605.406 387.837H600L700 317.567ZM700 829.73V825.676L600 895.946H605.406L700 829.73ZM700 190.543V194.597L605.406 260.813H600L700 190.543ZM700 702.703V698.648L600 768.919H605.406L700 702.703ZM700 444.596V448.65L605.406 514.866H600L700 444.596ZM700 956.754V952.7L600 1022.97H605.406L700 956.754Z" fill="white" fill-opacity="0.04"/>
</g>
<defs>
<clipPath id="clip0_2704_42478">
<rect width="325" height="200" fill="white"/>
</clipPath>
</defs>
</svg>
