<svg width="40" height="42" viewBox="0 0 40 42" fill="none" xmlns="http://www.w3.org/2000/svg">
<path d="M22.5 2.25V17.25H37.5C37.5 13.2718 35.9196 9.45644 33.1066 6.6434C30.2936 3.83035 26.4782 2.25 22.5 2.25Z" fill="#FBB03E" stroke="#FBB03E" stroke-width="3"/>
<path d="M17.4997 24.75V9.75C15.1087 9.75021 12.7525 10.322 10.6273 11.4176C8.50219 12.5132 6.66974 14.101 5.28276 16.0486C3.89578 17.9961 2.99445 20.247 2.65391 22.6136C2.31336 24.9801 2.54348 27.3938 3.32507 29.6534C4.10666 31.913 5.41707 33.953 7.14707 35.6034C8.87707 37.2538 10.9765 38.4667 13.2704 39.141C15.5643 39.8154 17.9861 39.9316 20.3341 39.48C22.682 39.0284 24.8879 38.0221 26.768 36.545L17.4997 24.75Z" stroke="#15191C" stroke-width="3" stroke-linecap="round"/>
<path d="M37.5 22.25H22.5L31.7683 34.045C33.5558 32.6425 35.0008 30.8517 35.9938 28.8082C36.9868 26.7647 37.5019 24.522 37.5 22.25Z" stroke="#15191C" stroke-width="3" stroke-linecap="round"/>
</svg>
