<svg width="42" height="42" viewBox="0 0 42 42" fill="none" xmlns="http://www.w3.org/2000/svg">
<path d="M7.58398 19.9048C9.75065 22.0715 12.584 23.5715 15.9173 23.5715C17.584 23.5715 19.2507 23.2381 20.584 22.5715" stroke="#15191C" stroke-width="3"/>
<path d="M13.75 30.2383C17.616 30.2383 20.75 27.1043 20.75 23.2383C20.75 19.3723 17.616 16.2383 13.75 16.2383C9.884 16.2383 6.75 19.3723 6.75 23.2383C6.75 27.1043 9.884 30.2383 13.75 30.2383Z" stroke="#15191C" stroke-width="3"/>
<path d="M13.75 33.0835V39.7502" stroke="#15191C" stroke-width="3"/>
<path d="M25.25 40.6828C22.9167 36.6828 18.5833 34.0161 13.75 34.0161C8.91669 34.0161 4.58334 36.6828 2.25 40.6828" stroke="#15191C" stroke-width="3"/>
<path d="M32.083 29.7197C34.8445 29.7197 37.083 27.4812 37.083 24.7197C37.083 21.9582 34.8445 19.7197 32.083 19.7197C29.3215 19.7197 27.083 21.9582 27.083 24.7197C27.083 27.4812 29.3215 29.7197 32.083 29.7197Z" stroke="#15191C" stroke-width="3"/>
<path d="M37.0833 24.7197C36.4167 24.8864 35.5833 24.8864 34.9167 24.8864C32.25 24.8864 29.75 23.8864 27.75 22.2197" stroke="#15191C" stroke-width="3"/>
<path d="M39.7497 38.7142C38.583 35.5475 35.583 33.3809 31.9163 33.3809C29.583 33.3809 27.583 34.3809 26.083 35.8809" stroke="#15191C" stroke-width="3"/>
<path d="M24.4922 12.8765V18.0431V12.8765Z" fill="#FBB03E"/>
<path d="M24.4922 12.8765V18.0431" stroke="#FBB03E" stroke-width="3"/>
<path d="M24.4922 12.8764L26.3255 12.2097C27.8255 11.7097 29.4922 11.8764 30.8255 12.8764C32.1589 13.8764 34.6589 14.0431 36.1589 13.5431L37.9922 12.8764V3.20972L36.1589 3.87639C34.6589 4.37639 32.1589 4.20972 30.8255 3.20972C29.4922 2.20971 27.8255 2.04305 26.3255 2.54305L24.4922 3.20972V12.8764Z" fill="#FBB03E" stroke="#FBB03E" stroke-width="3"/>
</svg>
