<svg width="44" height="44" viewBox="0 0 44 44" fill="none" xmlns="http://www.w3.org/2000/svg">
<path d="M14.5 22.0015C14.5 23.9906 15.2902 25.8982 16.6967 27.3048C18.1032 28.7113 20.0109 29.5015 22 29.5015C23.9891 29.5015 25.8968 28.7113 27.3033 27.3048C28.7098 25.8982 29.5 23.9906 29.5 22.0015C29.5 20.0123 28.7098 18.1047 27.3033 16.6982C25.8968 15.2916 23.9891 14.5015 22 14.5015C20.0109 14.5015 18.1032 15.2916 16.6967 16.6982C15.2902 18.1047 14.5 20.0123 14.5 22.0015Z" fill="#FBB03E" stroke="#FBB03E" stroke-width="3"/>
<path d="M27.4319 2.62354L27.9938 1.23275L26.9913 0.827766L26.2901 1.65068L27.4319 2.62354ZM31.5527 4.28838L33.0498 4.38162L33.117 3.30257L32.1146 2.89759L31.5527 4.28838ZM24.2007 6.41562L24.0305 7.90593L24.8243 7.99657L25.3424 7.38847L24.2007 6.41562ZM19.6213 6.56253L18.4968 7.5552L19.0558 8.18846L19.8871 8.03879L19.6213 6.56253ZM16.2312 2.72206L17.3557 1.72939L16.6403 0.918864L15.6451 1.34132L16.2312 2.72206ZM12.1401 4.45872L11.554 3.07798L10.5588 3.50043L10.6449 4.57814L12.1401 4.45872ZM12.5625 9.74757L13.494 10.9232L14.1214 10.4261L14.0577 9.62815L12.5625 9.74757ZM9.64105 12.781L9.54781 14.2781L10.3659 14.3291L10.8506 13.6681L9.64105 12.781ZM4.28886 12.4477L4.38211 10.9506L3.30306 10.8834L2.89808 11.8858L4.28886 12.4477ZM2.62402 16.5685L1.23324 16.0066L0.828254 17.0091L1.65117 17.7103L2.62402 16.5685ZM6.7053 20.0461L8.1916 20.2484L8.30215 19.4361L7.67816 18.9044L6.7053 20.0461ZM6.69932 24.2591L7.692 25.3837L8.29209 24.8539L8.18612 24.0605L6.69932 24.2591ZM2.72233 27.7698L1.72965 26.6452L0.919128 27.3607L1.34158 28.3559L2.72233 27.7698ZM4.45899 31.8609L3.07824 32.447L3.50069 33.4422L4.5784 33.3561L4.45899 31.8609ZM9.56399 31.4532L10.7807 30.5759L10.2867 29.8907L9.44458 29.9579L9.56399 31.4532ZM12.7575 34.7414L14.2546 34.8346L14.3043 34.0372L13.6703 33.5511L12.7575 34.7414ZM12.4479 39.7121L10.9508 39.6188L10.8836 40.6979L11.8861 41.1029L12.4479 39.7121ZM16.5688 41.3769L16.0069 42.7677L17.0093 43.1727L17.7105 42.3498L16.5688 41.3769ZM19.6364 37.7767L19.9009 36.3002L19.0532 36.1484L18.4947 36.8039L19.6364 37.7767ZM24.7456 37.8524L25.8701 36.8597L25.3306 36.2485L24.5242 36.3688L24.7456 37.8524ZM27.77 41.2786L26.6455 42.2713L27.361 43.0818L28.3561 42.6594L27.77 41.2786ZM31.8611 39.542L32.4472 40.9227L33.4424 40.5003L33.3564 39.4226L31.8611 39.542ZM31.5109 35.1561L30.6517 33.9266L29.9472 34.4188L30.0156 35.2755L31.5109 35.1561ZM35.3884 31.2831L35.4816 29.786L34.6427 29.7338L34.1602 30.422L35.3884 31.2831ZM39.7126 31.5525L39.6193 33.0496L40.6984 33.1168L41.1034 32.1143L39.7126 31.5525ZM41.3774 27.4316L42.7682 27.9935L43.1732 26.9911L42.3503 26.2899L41.3774 27.4316ZM38.0792 24.6213L36.5975 24.3878L36.4667 25.218L37.1064 25.763L38.0792 24.6213ZM37.9797 19.1432L36.987 18.0187L36.3427 18.5875L36.5075 19.431L37.9797 19.1432ZM41.2789 16.2309L42.2716 17.3555L43.0821 16.64L42.6596 15.6448L41.2789 16.2309ZM39.5422 12.1398L40.923 11.5537L40.5005 10.5585L39.4228 10.6446L39.5422 12.1398ZM34.9851 12.5038L33.7954 13.4173L34.2919 14.0639L35.1045 13.999L34.9851 12.5038ZM31.2586 9.01076L29.7615 8.91752L29.708 9.77695L30.4231 10.2566L31.2586 9.01076ZM26.87 4.01432L30.9908 5.67916L32.1146 2.89759L27.9938 1.23275L26.87 4.01432ZM25.3424 7.38847L28.5736 3.59639L26.2901 1.65068L23.059 5.44276L25.3424 7.38847ZM19.8871 8.03879C21.2735 7.78919 22.6682 7.75036 24.0305 7.90593L24.3709 4.9253C22.723 4.73712 21.0345 4.78399 19.3555 5.08626L19.8871 8.03879ZM15.1066 3.71474L18.4968 7.5552L20.7458 5.56985L17.3557 1.72939L15.1066 3.71474ZM12.7262 5.83947L16.8173 4.10281L15.6451 1.34132L11.554 3.07798L12.7262 5.83947ZM14.0577 9.62815L13.6353 4.33931L10.6449 4.57814L11.0672 9.86698L14.0577 9.62815ZM10.8506 13.6681C11.5972 12.6501 12.4827 11.7246 13.494 10.9232L11.6309 8.57189C10.406 9.54245 9.33432 10.6629 8.43148 11.8939L10.8506 13.6681ZM4.19562 13.9448L9.54781 14.2781L9.7343 11.2839L4.38211 10.9506L4.19562 13.9448ZM4.01481 17.1304L5.67965 13.0096L2.89808 11.8858L1.23324 16.0066L4.01481 17.1304ZM7.67816 18.9044L3.59688 15.4268L1.65117 17.7103L5.73245 21.1879L7.67816 18.9044ZM8.18612 24.0605C8.01524 22.7811 8.02131 21.4997 8.1916 20.2484L5.219 19.8439C5.01307 21.3571 5.00556 22.9081 5.21253 24.4577L8.18612 24.0605ZM3.715 28.8943L7.692 25.3837L5.70665 23.1346L1.72965 26.6452L3.715 28.8943ZM5.83973 31.2747L4.10307 27.1836L1.34158 28.3559L3.07824 32.447L5.83973 31.2747ZM9.44458 29.9579L4.33957 30.3656L4.5784 33.3561L9.68341 32.9484L9.44458 29.9579ZM13.6703 33.5511C12.5817 32.7163 11.6049 31.7191 10.7807 30.5759L8.34725 32.3304C9.34539 33.7148 10.528 34.922 11.8448 35.9317L13.6703 33.5511ZM13.945 39.8053L14.2546 34.8346L11.2604 34.6481L10.9508 39.6188L13.945 39.8053ZM17.1307 39.9861L13.0098 38.3213L11.8861 41.1029L16.0069 42.7677L17.1307 39.9861ZM18.4947 36.8039L15.427 40.4041L17.7105 42.3498L20.7782 38.7496L18.4947 36.8039ZM24.5242 36.3688C22.9695 36.6008 21.4092 36.5704 19.9009 36.3002L19.372 39.2533C21.1954 39.5798 23.0838 39.617 24.967 39.336L24.5242 36.3688ZM28.8946 40.2859L25.8701 36.8597L23.621 38.8451L26.6455 42.2713L28.8946 40.2859ZM31.275 38.1612L27.1839 39.8979L28.3561 42.6594L32.4472 40.9227L31.275 38.1612ZM30.0156 35.2755L30.3659 39.6614L33.3564 39.4226L33.0061 35.0367L30.0156 35.2755ZM34.1602 30.422C33.2181 31.7655 32.0391 32.9571 30.6517 33.9266L32.37 36.3857C34.0503 35.2115 35.4774 33.7689 36.6165 32.1443L34.1602 30.422ZM39.8058 30.0554L35.4816 29.786L35.2951 32.7802L39.6193 33.0496L39.8058 30.0554ZM39.9866 26.8697L38.3218 30.9906L41.1034 32.1143L42.7682 27.9935L39.9866 26.8697ZM37.1064 25.763L40.4046 28.5733L42.3503 26.2899L39.0521 23.4795L37.1064 25.763ZM36.5075 19.431C36.8322 21.0917 36.8528 22.7674 36.5975 24.3878L39.5609 24.8547C39.8696 22.8953 39.845 20.8667 39.4518 18.8555L36.5075 19.431ZM40.2862 15.1064L36.987 18.0187L38.9724 20.2678L42.2716 17.3555L40.2862 15.1064ZM38.1615 12.7259L39.8981 16.817L42.6596 15.6448L40.923 11.5537L38.1615 12.7259ZM35.1045 13.999L39.6616 13.6351L39.4228 10.6446L34.8657 11.0085L35.1045 13.999ZM30.4231 10.2566C31.6953 11.1097 32.8384 12.1711 33.7954 13.4173L36.1748 11.5902C35.0157 10.0807 33.6319 8.79628 32.0941 7.76497L30.4231 10.2566ZM30.0556 4.19513L29.7615 8.91752L32.7557 9.10401L33.0498 4.38162L30.0556 4.19513Z" fill="#15191C"/>
</svg>
