<svg width="42" height="42" viewBox="0 0 42 42" fill="none" xmlns="http://www.w3.org/2000/svg">
<path d="M2.25 18.5C2.25 19.163 2.51339 19.7989 2.98223 20.2678C3.45107 20.7366 4.08696 21 4.75 21C5.41304 21 6.04893 20.7366 6.51777 20.2678C6.98661 19.7989 7.25 19.163 7.25 18.5C7.25 17.837 6.98661 17.2011 6.51777 16.7322C6.04893 16.2634 5.41304 16 4.75 16C4.08696 16 3.45107 16.2634 2.98223 16.7322C2.51339 17.2011 2.25 17.837 2.25 18.5Z" stroke="#15191C" stroke-width="3" stroke-linecap="round"/>
<path d="M13.5 4.75C13.5 5.41304 13.7634 6.04893 14.2322 6.51777C14.7011 6.98661 15.337 7.25 16 7.25C16.663 7.25 17.2989 6.98661 17.7678 6.51777C18.2366 6.04893 18.5 5.41304 18.5 4.75C18.5 4.08696 18.2366 3.45107 17.7678 2.98223C17.2989 2.51339 16.663 2.25 16 2.25C15.337 2.25 14.7011 2.51339 14.2322 2.98223C13.7634 3.45107 13.5 4.08696 13.5 4.75Z" stroke="#15191C" stroke-width="3" stroke-linecap="round"/>
<path d="M34.75 11C34.75 11.663 35.0134 12.2989 35.4822 12.7678C35.9511 13.2366 36.587 13.5 37.25 13.5C37.913 13.5 38.5489 13.2366 39.0178 12.7678C39.4866 12.2989 39.75 11.663 39.75 11C39.75 10.337 39.4866 9.70107 39.0178 9.23223C38.5489 8.76339 37.913 8.5 37.25 8.5C36.587 8.5 35.9511 8.76339 35.4822 9.23223C35.0134 9.70107 34.75 10.337 34.75 11Z" stroke="#15191C" stroke-width="3" stroke-linecap="round"/>
<path d="M6.33301 16.5664L14.4163 6.68311" stroke="#15191C" stroke-width="3" stroke-linecap="round"/>
<path d="M34.8504 10.3002L18.4004 5.4502" stroke="#15191C" stroke-width="3" stroke-linecap="round"/>
<rect x="4.1748" y="28.0967" width="7.61905" height="11.6129" stroke="#15191C" stroke-width="3" stroke-linecap="round"/>
<rect x="16.873" y="15.8389" width="7.61905" height="23.871" fill="#FBB03E" stroke="#FBB03E" stroke-width="3" stroke-linecap="round"/>
<rect x="29.5713" y="24.2256" width="7.61905" height="15.4839" stroke="#15191C" stroke-width="3" stroke-linecap="round"/>
</svg>
